<?xml version="1.0" standalone="no"?>
<!DOCTYPE svg PUBLIC "-//W3C//DTD SVG 20010904//EN"
 "http://www.w3.org/TR/2001/REC-SVG-20010904/DTD/svg10.dtd">
<svg version="1.0" xmlns="http://www.w3.org/2000/svg"
 width="512.000000pt" height="512.000000pt" viewBox="0 0 512.000000 512.000000"
 preserveAspectRatio="xMidYMid meet">
<metadata>
Created by potrace 1.11, written by Peter Selinger 2001-2013
</metadata>
<g transform="translate(0.000000,512.000000) scale(0.100000,-0.100000)"
fill="#000000" stroke="none">
<path d="M1 3048 c1 -1140 4 -2134 8 -2208 l6 -135 2544 0 2543 0 -1 123 c-1
80 2 122 8 122 8 0 11 633 11 2085 l0 2085 -2560 0 -2560 0 1 -2072z m2704
830 c74 -101 288 -391 475 -646 l340 -463 -130 -159 c-72 -88 -135 -162 -139
-164 -7 -5 -631 897 -655 945 -5 11 -14 19 -20 19 -6 0 -153 -208 -326 -462
-173 -254 -319 -463 -325 -464 -11 -3 -268 308 -273 330 -2 7 162 238 364 512
202 275 406 552 453 616 47 65 89 118 94 118 4 0 68 -82 142 -182z m-10 -769
l105 -149 -40 -80 c-22 -44 -44 -80 -48 -80 -5 0 -16 16 -25 35 -9 19 -21 35
-27 35 -6 0 -27 -34 -47 -75 -21 -41 -40 -75 -43 -75 -3 0 -22 34 -43 75 -20
41 -40 75 -44 75 -5 0 -19 -19 -32 -42 l-23 -41 -44 84 c-24 46 -43 87 -41 90
1 3 51 76 112 161 83 119 113 154 122 146 7 -6 60 -77 118 -159z m-1009 -396
c50 -60 93 -114 98 -121 4 -7 -8 -37 -30 -74 l-37 -61 -22 26 c-11 15 -24 27
-27 27 -3 0 -20 -22 -37 -50 -17 -27 -34 -50 -39 -50 -4 0 -21 23 -37 50 -16
28 -32 50 -36 50 -4 0 -17 -12 -29 -27 -12 -16 -23 -23 -26 -18 -2 6 -20 34
-39 63 l-34 52 97 119 c53 66 100 120 103 121 3 0 46 -48 95 -107z m2009 -24
c50 -61 90 -116 90 -122 0 -20 -59 -117 -71 -117 -6 0 -16 11 -22 25 -6 14
-15 25 -19 25 -5 0 -23 -25 -41 -55 -18 -30 -35 -55 -37 -55 -3 0 -21 26 -41
57 -34 53 -37 56 -50 38 -8 -10 -14 -22 -14 -27 0 -25 -30 0 -61 50 l-36 58
96 117 c53 64 100 117 106 117 5 0 51 -50 100 -111z m-2093 -667 c9 -9 9 -18
0 -36 -10 -23 -15 -24 -65 -19 -50 5 -57 3 -87 -24 -48 -43 -48 -93 -1 -135
33 -29 65 -34 120 -17 8 2 21 -8 30 -23 24 -41 5 -53 -84 -53 -67 0 -76 3
-112 31 -21 18 -46 51 -57 77 -17 40 -18 52 -7 86 14 49 55 99 96 117 35 17
149 14 167 -4z m116 -49 l3 -63 49 0 49 0 3 63 3 62 35 0 35 0 3 -140 c4 -177
1 -187 -41 -183 -32 3 -32 3 -35 66 l-3 62 -49 0 -49 0 -3 -62 -3 -63 -35 0
-35 0 -3 150 c-1 82 0 155 3 163 3 8 17 12 37 10 l33 -3 3 -62z m451 -85 c34
-84 61 -159 61 -165 0 -8 -13 -13 -33 -13 -28 0 -36 5 -50 35 -17 36 -18 36
-74 33 -51 -3 -58 -6 -73 -33 -16 -29 -47 -42 -75 -31 -11 4 -3 32 36 128 85
210 78 198 114 198 l33 0 61 -152z m161 22 l0 -130 55 0 55 0 0 -35 0 -35 -90
0 -90 0 0 165 0 165 35 0 35 0 0 -130z m222 3 l3 -128 53 -3 52 -3 0 -35 0
-34 -90 0 -90 0 0 165 0 165 35 0 34 0 3 -127z m333 92 c0 -29 -2 -30 -52 -33
-51 -3 -53 -4 -53 -33 0 -28 1 -29 50 -29 l50 0 0 -35 0 -35 -50 0 c-49 0 -50
-1 -50 -29 0 -29 2 -30 53 -33 50 -3 52 -4 52 -33 l0 -30 -90 0 -90 0 -3 163
-2 163 92 -3 93 -3 0 -30z m138 3 c13 -18 41 -61 62 -95 21 -35 42 -60 47 -57
5 3 9 40 8 82 -1 43 -1 83 -1 90 1 9 12 12 34 10 l32 -3 0 -160 0 -160 -35 0
c-33 0 -38 5 -97 95 -35 52 -63 91 -64 85 -1 -5 0 -44 0 -85 2 -87 -5 -103
-45 -98 l-29 3 -3 163 -2 162 34 0 c28 0 40 -7 59 -32z m465 12 c38 -24 39
-30 9 -59 -21 -18 -26 -20 -36 -7 -19 23 -58 28 -90 11 -34 -17 -56 -72 -46
-113 15 -63 85 -93 127 -55 29 26 22 43 -18 43 -33 0 -35 2 -32 28 3 27 4 27
73 27 l70 0 3 -40 c5 -77 -63 -145 -146 -145 -109 0 -183 104 -153 216 10 38
59 95 91 107 37 13 116 6 148 -13z m277 -15 c0 -29 -2 -30 -55 -35 -51 -5 -55
-7 -55 -30 0 -23 4 -25 53 -28 l53 -3 -3 -32 c-3 -31 -5 -32 -53 -37 -45 -5
-50 -7 -50 -30 0 -23 4 -25 55 -30 53 -5 55 -6 55 -35 l0 -30 -90 0 -90 0 -3
150 c-1 82 0 155 3 162 3 10 26 13 92 11 l88 -3 0 -30z m-2450 -369 c47 -20
69 -57 62 -103 -9 -52 -43 -83 -103 -91 l-49 -7 -3 -58 -3 -57 -34 0 -35 0 0
158 c0 87 3 162 7 165 12 13 123 7 158 -7z m247 3 c77 -21 91 -118 25 -171
-21 -16 -21 -16 26 -71 26 -30 47 -60 47 -66 0 -6 -17 -11 -39 -11 -35 0 -42
5 -81 55 -23 30 -46 55 -51 55 -5 0 -9 -25 -9 -55 l0 -55 -35 0 -35 0 0 165 0
165 58 0 c31 0 74 -5 94 -11z m359 -12 c53 -35 79 -82 79 -139 0 -104 -61
-168 -161 -168 -98 0 -159 64 -159 166 0 91 71 164 160 164 32 0 58 -7 81 -23z
m334 8 c45 -18 54 -41 27 -68 -20 -20 -22 -20 -40 -4 -29 27 -87 22 -111 -9
-30 -38 -28 -104 2 -140 30 -35 83 -36 110 -3 21 26 14 36 -28 41 -22 2 -30 8
-30 23 0 18 8 20 73 23 l72 3 0 -49 c0 -82 -56 -132 -148 -132 -59 0 -106 28
-134 80 -26 48 -21 143 10 187 41 58 125 79 197 48z m303 -18 c38 -38 37 -95
-2 -136 l-29 -30 29 -37 c16 -20 36 -46 45 -57 20 -24 16 -29 74 118 69 175
70 177 108 173 30 -3 33 -7 91 -153 60 -148 61 -150 67 -110 4 22 10 83 14
135 9 131 9 132 53 128 36 -3 37 -4 71 -91 19 -48 38 -84 42 -80 4 5 21 45 39
91 31 81 32 82 66 82 19 0 37 -6 40 -13 9 -26 31 -302 24 -310 -4 -5 -20 -7
-36 -5 -29 3 -29 4 -39 93 l-10 90 -29 -80 c-49 -135 -70 -138 -111 -16 -15
45 -31 81 -36 81 -5 0 -9 -24 -9 -54 0 -29 -3 -68 -6 -85 l-6 -31 -69 0 c-69
0 -69 0 -86 35 -16 34 -18 35 -75 35 -58 0 -59 -1 -74 -35 l-14 -35 -75 0 -75
0 -48 61 -47 62 -5 -59 c-5 -58 -6 -59 -37 -62 l-33 -3 0 167 0 167 81 -5 c70
-4 84 -8 107 -31z m860 21 c5 -7 22 -48 38 -90 16 -43 31 -78 34 -78 3 0 18
35 34 78 35 94 41 102 77 102 39 0 45 -18 54 -155 4 -61 11 -119 15 -129 5
-14 23 21 66 130 56 139 62 149 88 152 16 2 33 -1 38 -6 11 -11 128 -297 128
-312 0 -6 -16 -10 -36 -10 -31 0 -37 4 -50 35 -14 34 -15 35 -72 35 -57 0 -59
-1 -75 -35 l-17 -35 -69 0 c-79 0 -81 2 -81 83 0 106 -10 109 -46 11 -27 -76
-35 -89 -54 -89 -20 0 -27 11 -47 70 -13 39 -25 76 -28 84 -10 27 -19 -1 -25
-77 -5 -76 -5 -77 -34 -80 -16 -2 -32 0 -37 5 -8 8 16 296 26 314 9 13 61 11
73 -3z m-1672 -494 c1 -17 4 -36 8 -43 13 -21 -15 -41 -55 -41 l-39 0 0 61 0
60 43 -3 c39 -3 42 -5 43 -34z m117 29 c-25 -3 -33 -9 -33 -24 0 -14 7 -19 25
-19 14 0 25 -5 25 -11 0 -5 -10 -9 -22 -7 -17 2 -24 -3 -26 -19 -3 -19 2 -22
35 -26 36 -3 35 -4 -9 -5 l-48 -2 0 60 0 60 43 -2 c36 -1 38 -2 10 -5z m197
-25 c13 -25 13 -31 0 -55 -14 -24 -22 -28 -60 -28 l-44 0 -1 50 c0 28 1 54 3
58 2 4 22 7 45 5 33 -2 44 -9 57 -30z m154 10 c7 -12 6 -24 -3 -42 -11 -21
-12 -28 -1 -41 7 -8 8 -15 3 -15 -5 0 -16 9 -26 20 -9 11 -22 20 -28 20 -6 0
-13 -9 -16 -20 -11 -40 -23 -18 -23 41 l0 60 41 -3 c26 -2 46 -10 53 -20z m73
-70 c-2 -18 -4 -4 -4 32 0 36 2 50 4 33 2 -18 2 -48 0 -65z m123 44 c0 -26 -5
-53 -12 -60 -15 -15 -45 -16 -53 -2 -4 6 4 9 17 7 21 -2 23 3 26 45 3 42 1 47
-20 51 -17 3 -15 5 10 6 32 1 32 1 32 -47z m105 39 c-38 -8 -42 -42 -5 -52
l25 -7 -27 -1 c-21 -1 -28 -7 -31 -28 -2 -16 -5 0 -6 35 l-1 62 38 -1 c36 -1
36 -2 7 -8z m145 0 c0 -6 -12 -9 -26 -8 -40 3 -40 -20 0 -37 37 -15 45 -33 24
-54 -14 -14 -64 -16 -73 -2 -4 6 5 7 23 4 36 -7 55 14 28 30 -51 30 -61 43
-47 60 14 17 71 22 71 7z m114 -22 c17 17 34 31 40 31 5 0 0 -10 -12 -23 -27
-29 -27 -32 -2 -64 11 -15 18 -28 15 -31 -2 -3 -14 7 -26 21 -26 34 -37 34
-45 2 -10 -38 -22 -20 -22 32 0 58 11 80 18 35 l5 -34 29 31z m116 -13 c0 -49
18 -71 50 -61 16 5 20 15 20 50 0 24 5 47 10 50 13 8 13 -71 0 -96 -13 -23
-62 -26 -84 -3 -18 17 -23 104 -6 104 6 0 10 -20 10 -44z m195 4 c15 -22 31
-40 36 -40 4 0 10 19 12 43 3 33 4 29 5 -20 1 -35 -2 -63 -7 -63 -4 0 -21 18
-36 40 -15 22 -31 40 -36 40 -4 0 -10 -19 -12 -42 -3 -34 -4 -30 -5 20 -1 34
2 62 7 62 4 0 21 -18 36 -40z m217 23 c43 -39 10 -103 -54 -103 l-38 0 0 60 0
60 37 0 c20 0 45 -7 55 -17z m126 10 c-30 -3 -38 -9 -38 -24 0 -15 7 -19 31
-19 17 0 28 -4 24 -10 -3 -5 -17 -10 -31 -10 -17 0 -24 -5 -24 -19 0 -15 9
-21 38 -24 32 -4 31 -4 -8 -3 l-44 1 -1 50 c0 28 1 53 3 58 2 4 22 6 45 5 l42
-1 -37 -4z m-2415 -338 c9 -20 17 -37 17 -38 0 -2 -18 -3 -40 -2 -45 0 -46 3
-25 45 20 39 28 38 48 -5z m73 -15 c2 0 9 12 15 28 6 15 13 22 15 16 5 -11
-23 -84 -31 -84 -8 0 -35 59 -35 77 1 13 5 11 16 -9 8 -16 17 -28 20 -28z
m117 15 c9 -20 17 -37 17 -38 0 -1 -18 -2 -40 -2 -22 0 -40 1 -40 3 0 13 31
72 38 72 4 0 16 -16 25 -35z m76 8 c19 -27 20 -27 21 -6 0 12 5 25 10 28 11 7
14 -67 3 -79 -4 -3 -17 6 -30 21 -22 27 -22 27 -23 6 0 -13 -4 -23 -10 -23 -5
0 -10 18 -10 40 0 47 11 50 39 13z m121 17 c0 -5 -8 -10 -17 -11 -15 0 -14 -3
5 -16 12 -8 22 -21 22 -29 0 -17 -39 -29 -53 -15 -8 8 -4 11 14 11 l24 0 -24
19 c-16 12 -22 24 -18 35 7 17 47 23 47 6z m120 -20 c11 0 24 8 29 18 8 13 10
7 10 -28 0 -40 -1 -43 -13 -27 -16 21 -35 22 -42 2 -11 -26 -24 -16 -24 18 0
36 13 59 18 33 2 -9 12 -16 22 -16z m144 14 c20 -20 20 -33 -1 -56 -23 -25
-50 -23 -69 7 -16 24 -16 27 1 45 22 24 48 26 69 4z m101 6 c4 -6 -5 -10 -19
-10 -21 0 -26 -5 -26 -25 0 -18 5 -25 19 -25 11 0 21 6 24 13 2 6 8 9 12 5 11
-10 -14 -38 -34 -38 -23 0 -41 20 -41 45 0 37 48 62 65 35z m95 0 c0 -5 -10
-10 -22 -11 -22 0 -22 -1 2 -11 25 -11 25 -11 3 -15 -32 -6 -29 -23 4 -23 19
0 24 -3 16 -11 -6 -6 -21 -9 -34 -7 -18 2 -25 10 -27 31 -2 16 -1 35 2 43 6
16 56 19 56 4z m85 0 c3 -6 -4 -10 -17 -11 l-23 0 23 -11 c42 -21 18 -72 -25
-52 -16 7 -15 8 5 11 27 5 29 20 2 28 -20 6 -26 25 -13 38 10 10 41 8 48 -3z
m100 0 c3 -6 -5 -10 -19 -10 -13 0 -26 -6 -29 -12 -8 -23 5 -38 31 -38 19 0
23 -3 15 -11 -15 -15 -43 -8 -59 16 -12 18 -11 24 2 43 16 23 48 29 59 12z
m105 -32 c-1 -34 -3 -39 -11 -25 -12 21 -39 23 -39 2 0 -8 -4 -15 -10 -15 -5
0 -10 16 -10 35 0 19 5 35 10 35 6 0 10 -4 10 -10 0 -5 9 -10 20 -10 11 0 20
7 20 15 0 8 2 15 5 15 3 0 5 -19 5 -42z m108 30 c32 -32 -4 -87 -48 -73 -25 8
-37 50 -20 70 15 18 51 20 68 3z m110 0 c21 -21 14 -57 -13 -70 -22 -10 -29
-9 -47 10 -19 18 -20 25 -10 47 13 27 49 34 70 13z m73 -55 c23 -6 15 -23 -11
-23 -19 0 -30 19 -30 54 0 36 15 41 18 6 2 -22 10 -34 23 -37z m279 57 c0 -5
-8 -10 -17 -10 -15 0 -13 -4 7 -20 23 -18 24 -20 8 -36 -11 -11 -23 -14 -35
-9 -16 7 -15 8 6 14 l24 7 -27 17 c-22 15 -25 21 -15 33 13 16 49 19 49 4z
m131 -20 c10 0 19 5 19 10 0 6 5 10 10 10 6 0 10 -16 10 -35 0 -39 -6 -43 -26
-17 -13 16 -15 16 -28 0 -19 -26 -26 -22 -26 15 0 36 13 59 18 33 2 -9 12 -16
23 -16z m129 25 c0 -3 -10 -10 -22 -15 -18 -7 -19 -9 -5 -9 21 -1 23 -21 2
-21 -8 0 -15 -4 -15 -10 0 -5 9 -10 20 -10 11 0 20 -5 20 -11 0 -6 -12 -9 -27
-7 -25 3 -28 7 -31 46 -3 41 -2 42 27 42 17 0 31 -2 31 -5z m95 -37 c1 -38 -8
-48 -21 -27 -4 8 -9 8 -17 0 -19 -19 -27 -12 -27 22 0 41 7 49 40 45 22 -3 25
-8 25 -40z m85 33 c0 -6 -4 -13 -10 -16 -5 -3 -10 -17 -10 -31 0 -16 -4 -23
-11 -18 -6 3 -9 15 -6 25 3 10 1 22 -4 25 -18 10 -9 24 16 24 14 0 25 -4 25
-9z m104 -7 c21 -21 20 -37 -3 -58 -24 -22 -49 -18 -67 9 -12 18 -11 24 2 43
18 26 46 28 68 6z m106 6 c0 -5 -11 -10 -25 -10 -20 0 -25 -5 -25 -25 0 -18 5
-25 19 -25 11 0 21 6 24 13 2 6 8 9 12 5 11 -10 -14 -38 -34 -38 -23 0 -41 20
-41 45 0 12 5 26 12 33 15 15 58 16 58 2z m90 0 c0 -5 -10 -10 -22 -11 -22 0
-22 -1 2 -11 25 -11 25 -11 3 -15 -32 -6 -29 -23 4 -23 19 0 24 -3 16 -11 -6
-6 -21 -9 -34 -7 -18 2 -25 10 -27 31 -2 16 -1 35 2 43 6 16 56 19 56 4z m68
-10 c16 -26 30 -25 35 3 2 12 5 0 6 -27 l1 -50 -30 29 c-29 28 -30 28 -30 7 0
-12 -4 -22 -10 -22 -11 0 -14 63 -3 73 10 11 17 8 31 -13z m143 -14 c10 -36
-4 -56 -37 -56 -23 0 -26 4 -26 35 0 52 2 56 29 53 20 -2 29 -10 34 -32z m109
14 c23 -43 -17 -83 -60 -60 -22 12 -27 49 -8 68 19 19 56 14 68 -8z m80 10 c0
-5 -8 -10 -17 -10 -14 0 -13 -3 5 -16 12 -8 22 -21 22 -29 0 -18 -39 -30 -53
-16 -8 8 -5 11 11 11 12 0 22 5 22 10 0 6 -6 10 -14 10 -19 0 -29 17 -22 35 6
17 46 21 46 5z m105 1 c3 -5 -7 -11 -22 -13 -41 -4 -39 -41 2 -48 29 -6 29 -6
6 -14 -17 -6 -28 -3 -44 13 -18 17 -19 24 -9 46 12 25 54 36 67 16z m62 -21
c9 0 22 8 29 18 12 15 13 12 14 -25 0 -24 -4 -43 -10 -43 -5 0 -10 7 -10 15 0
8 -7 15 -15 15 -9 0 -18 -7 -21 -15 -11 -26 -24 -16 -24 18 0 36 13 59 18 33
2 -9 11 -16 19 -16z"/>
<path d="M2053 1886 c-12 -40 -9 -46 23 -46 31 0 35 9 19 48 -18 41 -29 41
-42 -2z"/>
<path d="M1227 1584 c-14 -14 -7 -74 9 -81 39 -15 78 29 56 64 -9 14 -55 27
-65 17z"/>
<path d="M1487 1583 c-13 -12 -7 -74 7 -79 24 -9 56 15 56 41 0 31 -44 58 -63
38z"/>
<path d="M1785 1555 c-19 -18 -25 -35 -25 -70 0 -59 32 -95 84 -95 47 0 76 37
76 97 0 55 -33 93 -80 93 -19 0 -40 -9 -55 -25z"/>
<path d="M2444 1577 c-10 -27 0 -72 17 -75 18 -3 49 23 49 41 -1 32 -55 60
-66 34z"/>
<path d="M2762 1505 c-19 -42 -15 -55 18 -55 34 0 34 1 18 47 -14 40 -21 41
-36 8z"/>
<path d="M3812 1497 c-16 -46 -16 -47 18 -47 33 0 37 13 18 55 -15 33 -22 32
-36 -8z"/>
<path d="M1676 1155 c-6 -18 13 -29 41 -23 28 5 22 33 -8 36 -17 2 -29 -3 -33
-13z"/>
<path d="M1678 1108 c-9 -23 3 -38 28 -38 21 0 44 24 33 35 -13 12 -57 15 -61
3z"/>
<path d="M1970 1120 c0 -48 1 -50 28 -50 35 0 52 16 52 52 0 29 -23 48 -59 48
-18 0 -21 -6 -21 -50z"/>
<path d="M2140 1140 c0 -28 3 -31 28 -28 21 2 27 8 27 28 0 20 -6 26 -27 28
-25 3 -28 0 -28 -28z"/>
<path d="M3224 1156 c-3 -8 -4 -29 -2 -48 2 -27 8 -34 30 -36 18 -2 31 4 42
20 20 29 20 34 -4 58 -23 23 -58 26 -66 6z"/>
<path d="M1175 830 c-3 -5 -1 -10 4 -10 6 0 11 5 11 10 0 6 -2 10 -4 10 -3 0
-8 -4 -11 -10z"/>
<path d="M1606 841 c-11 -18 6 -42 28 -39 29 4 29 42 -1 46 -11 2 -24 -1 -27
-7z"/>
<path d="M2203 834 c-3 -8 -1 -20 5 -26 16 -16 42 -2 42 22 0 24 -38 28 -47 4z"/>
<path d="M2317 843 c-12 -11 -7 -33 8 -39 20 -8 45 13 38 32 -5 14 -34 19 -46
7z"/>
<path d="M3030 840 c0 -5 7 -10 15 -10 8 0 15 5 15 10 0 6 -7 10 -15 10 -8 0
-15 -4 -15 -10z"/>
<path d="M3206 841 c-11 -18 6 -42 28 -39 29 4 29 42 -1 46 -11 2 -24 -1 -27
-7z"/>
<path d="M3628 843 c7 -3 16 -2 19 1 4 3 -2 6 -13 5 -11 0 -14 -3 -6 -6z"/>
<path d="M3630 810 c0 -5 7 -10 16 -10 8 0 12 5 9 10 -3 6 -10 10 -16 10 -5 0
-9 -4 -9 -10z"/>
<path d="M3717 836 c-7 -19 18 -40 39 -32 8 3 14 14 12 23 -4 22 -43 29 -51 9z"/>
<path d="M0 340 l0 -340 2560 0 2560 0 0 340 0 340 -2560 0 -2560 0 0 -340z"/>
</g>
</svg>
